<svg width="616" height="369" viewBox="0 0 616 369" fill="none" xmlns="http://www.w3.org/2000/svg">
<path d="M615.986 323.696H0V323.943H615.986V323.696Z" fill="#EBEBEB"/>
<path d="M408.053 342.264H397.348V342.51H408.053V342.264Z" fill="#EBEBEB"/>
<path d="M291.978 279.671H54.0965C52.2329 279.668 50.4468 279.073 49.1302 278.016C47.8137 276.959 47.0742 275.527 47.0742 274.034V6.10028C47.0904 4.61568 47.837 3.19615 49.1519 2.15004C50.4667 1.10393 52.2435 0.515727 54.0965 0.513184H291.978C293.843 0.513184 295.633 1.10702 296.952 2.16406C298.271 3.2211 299.012 4.65475 299.012 6.14963V274.034C299.012 275.529 298.271 276.963 296.952 278.02C295.633 279.077 293.843 279.671 291.978 279.671ZM54.0965 0.710608C52.3146 0.713223 50.6068 1.28221 49.348 2.29269C48.0892 3.30317 47.3822 4.67256 47.3822 6.10028V274.034C47.3822 275.462 48.0892 276.831 49.348 277.842C50.6068 278.852 52.3146 279.421 54.0965 279.424H291.978C293.761 279.421 295.47 278.852 296.731 277.842C297.991 276.832 298.701 275.463 298.704 274.034V6.10028C298.701 4.67165 297.991 3.30228 296.731 2.29209C295.47 1.28189 293.761 0.713218 291.978 0.710608H54.0965Z" fill="#EBEBEB"/>
<path d="M558.465 279.671H320.572C318.707 279.668 316.92 279.073 315.601 278.017C314.283 276.96 313.54 275.528 313.537 274.034V6.10028C313.557 4.61478 314.306 3.19526 315.623 2.14943C316.939 1.10359 318.718 0.515699 320.572 0.513184H558.465C560.316 0.518321 562.09 1.10768 563.402 2.15351C564.714 3.19934 565.459 4.61738 565.475 6.10028V274.034C565.475 275.526 564.737 276.956 563.424 278.013C562.11 279.069 560.327 279.665 558.465 279.671ZM320.572 0.710608C318.789 0.713218 317.08 1.28189 315.819 2.29209C314.558 3.30228 313.848 4.67165 313.845 6.10028V274.034C313.848 275.463 314.558 276.832 315.819 277.842C317.08 278.852 318.789 279.421 320.572 279.424H558.465C560.248 279.421 561.957 278.852 563.218 277.842C564.479 276.832 565.189 275.463 565.192 274.034V6.10028C565.189 4.67165 564.479 3.30228 563.218 2.29209C561.957 1.28189 560.248 0.713218 558.465 0.710608H320.572Z" fill="#EBEBEB"/>
<path d="M96.6602 333.093H64.6289V333.34H96.6602V333.093Z" fill="#EBEBEB"/>
<path d="M351.456 330.418H284.807V330.665H351.456V330.418Z" fill="#EBEBEB"/>
<path d="M182.196 342.264H97.8926V342.51H182.196V342.264Z" fill="#EBEBEB"/>
<path d="M565.191 335.285H495.375V335.532H565.191V335.285Z" fill="#EBEBEB"/>
<path d="M484.412 335.285H455.99V335.532H484.412V335.285Z" fill="#EBEBEB"/>
<path d="M385.349 336.44H318.133V336.686H385.349V336.44Z" fill="#EBEBEB"/>
<path d="M187.457 323.568H329.232L329.232 62.5635H187.457L187.457 323.568Z" fill="#F0F0F0"/>
<path d="M60.4778 323.568H327.594L327.594 62.5635H60.4778L60.4778 323.568Z" fill="#F5F5F5"/>
<path d="M320.387 317.655V68.4961H194.861V317.655H320.387Z" fill="#F0F0F0"/>
<path d="M196.77 317.645L196.77 68.4863H194.848L194.848 317.645H196.77Z" fill="#F0F0F0"/>
<path d="M211.616 187.325C215.093 187.325 217.911 185.067 217.911 182.281C217.911 179.495 215.093 177.237 211.616 177.237C208.139 177.237 205.32 179.495 205.32 182.281C205.32 185.067 208.139 187.325 211.616 187.325Z" fill="#E0E0E0"/>
<path d="M209.151 186.279C212.628 186.279 215.446 184.021 215.446 181.235C215.446 178.449 212.628 176.191 209.151 176.191C205.674 176.191 202.855 178.449 202.855 181.235C202.855 184.021 205.674 186.279 209.151 186.279Z" fill="white"/>
<path d="M193.223 317.645L193.223 68.4863H67.6971L67.6971 317.645H193.223Z" fill="#F0F0F0"/>
<path d="M181.383 187.325C184.86 187.325 187.679 185.067 187.679 182.281C187.679 179.495 184.86 177.237 181.383 177.237C177.906 177.237 175.088 179.495 175.088 182.281C175.088 185.067 177.906 187.325 181.383 187.325Z" fill="#E0E0E0"/>
<path d="M178.918 186.279C182.395 186.279 185.214 184.021 185.214 181.235C185.214 178.449 182.395 176.191 178.918 176.191C175.442 176.191 172.623 178.449 172.623 181.235C172.623 184.021 175.442 186.279 178.918 186.279Z" fill="white"/>
<path d="M342.439 191.027H403.902V62.5634H342.439V191.027Z" fill="#E6E6E6"/>
<path d="M339.802 191.027H401.277V62.5634H339.802V191.027Z" fill="#F5F5F5"/>
<path d="M396.572 185.381V68.2197H344.521V185.381H396.572Z" fill="white"/>
<path d="M346.504 185.381V68.2197H344.52V185.381H346.504Z" fill="#E6E6E6"/>
<path d="M341.762 159.035H399.332V151.444H341.762V159.035Z" fill="#F5F5F5"/>
<path d="M418.242 191.027H479.705V62.5634H418.242V191.027Z" fill="#E6E6E6"/>
<path d="M415.605 191.027H477.08V62.5634H415.605V191.027Z" fill="#F5F5F5"/>
<path d="M472.363 185.381V68.2197H420.313V185.381H472.363Z" fill="white"/>
<path d="M422.307 185.381V68.2197H420.323V185.381H422.307Z" fill="#E6E6E6"/>
<path d="M417.565 159.035H475.135V151.444H417.565V159.035Z" fill="#F5F5F5"/>
<path d="M494.045 191.027H555.508V62.5634H494.045V191.027Z" fill="#E6E6E6"/>
<path d="M491.409 191.027H552.885V62.5634H491.409V191.027Z" fill="#F5F5F5"/>
<path d="M548.166 185.381V68.2197H496.115V185.381H548.166Z" fill="white"/>
<path d="M498.098 185.381V68.2197H496.114V185.381H498.098Z" fill="#E6E6E6"/>
<path d="M493.356 159.035H550.926V151.444H493.356V159.035Z" fill="#F5F5F5"/>
<path d="M150.818 48.4971L152.555 49.2079H237.253V35.6152L150.818 48.4971Z" fill="#E0E0E0"/>
<path d="M233.976 48.4971H150.818L154.095 35.6152H237.253L233.976 48.4971Z" fill="#F5F5F5"/>
<path d="M472.288 240.551H408.053V323.696H472.288V240.551Z" fill="#F0F0F0"/>
<path d="M472.289 240.551L514.817 219.437V323.696H472.289V240.551Z" fill="#E0E0E0"/>
<path d="M408.053 240.551L450.58 219.437H514.815L472.288 240.551H408.053Z" fill="#EBEBEB"/>
<path d="M421.557 237.59L452.159 222.398H501.314L470.712 237.59H421.557Z" fill="#E0E0E0"/>
<path d="M452.158 237.59V222.398H501.314L470.712 237.59H452.158Z" fill="#E6E6E6"/>
<path d="M307.992 368.274C439.914 368.274 546.859 363.271 546.859 357.1C546.859 350.929 439.914 345.926 307.992 345.926C176.069 345.926 69.125 350.929 69.125 357.1C69.125 363.271 176.069 368.274 307.992 368.274Z" fill="#F5F5F5"/>
<path d="M150.141 69.9275C147.677 72.8198 148.453 74.9223 150.535 80.6674C151.397 83.0463 152.728 85.4154 156.818 81.9111C160.908 78.4069 164.888 71.7438 159.639 70.6185C156.549 69.9424 153.333 69.7084 150.141 69.9275Z" fill="#263238"/>
<path d="M150.03 347.871H140.888L140.494 330.882H149.648L150.03 347.871Z" fill="#FFC3BD"/>
<path d="M204.987 347.871H195.834L191.756 330.882H200.909L204.987 347.871Z" fill="#FFC3BD"/>
<path d="M195.205 346.992H205.492C205.671 346.991 205.844 347.04 205.983 347.13C206.123 347.22 206.219 347.345 206.256 347.486L207.869 354.01C207.904 354.171 207.894 354.336 207.84 354.493C207.786 354.65 207.69 354.796 207.559 354.92C207.427 355.044 207.263 355.144 207.079 355.212C206.894 355.28 206.693 355.314 206.49 355.313C202.892 355.313 201.155 355.096 196.634 355.096C193.85 355.096 188.121 355.323 184.314 355.323C180.507 355.323 180.064 352.283 181.641 352.007C188.737 350.773 191.497 349.045 193.751 347.436C194.156 347.156 194.67 346.999 195.205 346.992Z" fill="#263238"/>
<path d="M140.975 346.992H150.966C151.145 346.991 151.319 347.04 151.458 347.13C151.597 347.22 151.693 347.345 151.73 347.486L153.332 354.01C153.37 354.17 153.364 354.334 153.313 354.491C153.262 354.648 153.169 354.795 153.039 354.919C152.91 355.044 152.747 355.144 152.563 355.212C152.379 355.28 152.179 355.315 151.976 355.313C148.379 355.313 143.168 355.096 138.634 355.096C133.337 355.096 128.778 355.323 122.545 355.323C118.849 355.323 117.838 352.283 119.415 352.007C126.61 350.753 132.462 350.615 138.745 347.565C139.408 347.212 140.18 347.014 140.975 346.992Z" fill="#263238"/>
<path d="M143.353 115.917L130.861 112.709C130.861 112.709 117.949 136.657 113.613 138.147C107.736 140.122 99.5192 146.567 93.6797 150.467C93.4949 151.7 94.2094 154.948 95.1334 155.797C105.667 153.823 118.8 148.986 123.099 145.797C132.93 138.522 143.353 115.917 143.353 115.917Z" fill="#FFC3BD"/>
<path d="M146.271 110.409C149.782 116.825 135.676 137.2 135.676 137.2L117.012 130.29C119.305 124.078 122.406 118.076 126.264 112.383C132.128 104.161 142.415 103.361 146.271 110.409Z" fill="#407BFF"/>
<path opacity="0.7" d="M146.271 110.409C149.782 116.825 135.676 137.2 135.676 137.2L117.012 130.29C119.305 124.078 122.406 118.076 126.264 112.383C132.128 104.161 142.415 103.361 146.271 110.409Z" fill="white"/>
<path opacity="0.2" d="M130.589 121.583C128.779 125.551 127.366 129.627 126.363 133.774L135.677 137.229C135.677 137.229 145.607 122.896 146.765 114.526C141.332 111.623 133.989 114.358 130.589 121.583Z" fill="black"/>
<path d="M94.9473 149.756L84.0566 151.148L86.8778 160.358C90.6857 159.053 94.2214 157.289 97.3619 155.126L94.9473 149.756Z" fill="#FFC3BD"/>
<path d="M74.6328 155.047L78.5998 160.121L86.8786 160.358L84.0574 151.148L74.6328 155.047Z" fill="#FFC3BD"/>
<path opacity="0.2" d="M140.494 330.892L140.691 339.648H149.845L149.648 330.892H140.494Z" fill="black"/>
<path opacity="0.2" d="M200.909 330.892H191.756L193.863 339.648H203.016L200.909 330.892Z" fill="black"/>
<path d="M134.285 106.243C134.285 106.243 122.803 131.445 131.821 172.686H180.767C181.285 166.665 177.466 134.238 185.584 105.868C180.19 105.03 174.733 104.476 169.248 104.21C162.318 103.889 155.37 103.889 148.44 104.21C143.664 104.597 138.931 105.276 134.285 106.243Z" fill="#407BFF"/>
<path opacity="0.7" d="M134.285 106.243C134.285 106.243 122.803 131.445 131.821 172.686H180.767C181.285 166.665 177.466 134.238 185.584 105.868C180.19 105.03 174.733 104.476 169.248 104.21C162.318 103.889 155.37 103.889 148.44 104.21C143.664 104.597 138.931 105.276 134.285 106.243Z" fill="white"/>
<path opacity="0.2" d="M174.743 112.877C173.794 117.546 175.285 128.671 180.435 141.622C180.683 130.564 182.142 119.545 184.796 108.692V108.632C181.617 108.376 175.667 108.494 174.743 112.877Z" fill="black"/>
<path d="M167.019 88.6135C165.541 93.9835 164.691 100.627 169.261 104.21C169.261 104.21 166.403 109.649 153.96 109.649C142.589 109.649 148.453 104.21 148.453 104.21C155.956 102.779 155.845 95.3852 154.613 91.2195L167.019 88.6135Z" fill="#FFC3BD"/>
<path d="M153.368 109.225L150.682 111.613C150.586 111.695 150.52 111.796 150.489 111.905C150.459 112.015 150.466 112.129 150.51 112.235L151.372 114.338C151.42 114.455 151.512 114.558 151.636 114.632C151.759 114.707 151.908 114.748 152.062 114.752L154.957 114.871C155.095 114.877 155.233 114.853 155.356 114.803C155.479 114.753 155.584 114.678 155.66 114.585L157.397 112.541C157.504 112.433 157.562 112.299 157.562 112.161C157.562 112.023 157.504 111.889 157.397 111.781L154.588 109.215C154.514 109.141 154.421 109.082 154.315 109.042C154.208 109.002 154.092 108.982 153.975 108.982C153.857 108.983 153.742 109.006 153.637 109.048C153.532 109.09 153.44 109.15 153.368 109.225Z" fill="#263238"/>
<path d="M153.996 108.692C155.37 110.545 156.133 112.647 156.214 114.802C156.214 114.802 171.934 110.399 171.404 103.944C171.404 103.944 169.223 102.887 167.843 102.029C167.819 102.038 167.166 106.135 153.996 108.692Z" fill="white"/>
<path d="M153.996 108.692C152.512 110.433 151.424 112.372 150.781 114.417C150.781 114.417 143.832 110.587 146.148 104.21C147.457 103.797 148.804 103.467 150.177 103.223C150.177 103.223 149.068 107.31 153.996 108.692Z" fill="white"/>
<path d="M152.764 113.528C152.32 113.41 146.69 139.865 147.318 144.633C147.564 149.032 148.717 153.368 150.731 157.465C150.731 157.465 153.195 152.589 153.417 144.307C153.417 136.133 153.528 118.306 154.427 113.706L152.764 113.528Z" fill="#263238"/>
<path opacity="0.2" d="M154.613 91.2195C155.537 94.1207 155.426 97.1715 154.293 100.025C155.47 99.8965 156.616 99.6269 157.693 99.2251C161.956 97.6358 164.099 95.1384 166.379 91.417C166.576 90.4298 166.797 89.5415 167.056 88.6333L154.613 91.2195Z" fill="black"/>
<path d="M144.029 85.4055C144.381 86.2644 144.947 87.0572 145.693 87.7359C146.438 88.4146 147.347 88.9651 148.366 89.354C151.076 90.3411 152.974 88.4754 152.666 86.1952C152.395 84.1321 150.645 81.1214 147.738 81.072C147.093 81.0751 146.459 81.203 145.89 81.445C145.321 81.687 144.833 82.0358 144.469 82.4616C144.105 82.8875 143.874 83.3776 143.798 83.8903C143.721 84.4029 143.801 84.9228 144.029 85.4055Z" fill="#FFC3BD"/>
<path opacity="0.2" d="M144.029 85.4055C144.381 86.2644 144.947 87.0572 145.693 87.7359C146.438 88.4146 147.347 88.9651 148.366 89.354C151.076 90.3411 152.974 88.4754 152.666 86.1952C152.395 84.1321 150.645 81.1214 147.738 81.072C147.093 81.0751 146.459 81.203 145.89 81.445C145.321 81.687 144.833 82.0358 144.469 82.4616C144.105 82.8875 143.874 83.3776 143.798 83.8903C143.721 84.4029 143.801 84.9228 144.029 85.4055Z" fill="black"/>
<path d="M172.648 82.0789C169.999 89.1072 168.952 93.3321 163.371 96.2144C155.068 100.548 145.188 95.3951 145.188 87.9128C145.188 81.1806 149.524 70.8159 158.961 69.4734C161.031 69.1675 163.165 69.2993 165.153 69.8558C167.14 70.4123 168.912 71.3743 170.294 72.6469C171.675 73.9194 172.619 75.4587 173.032 77.1127C173.445 78.7667 173.313 80.4784 172.648 82.0789Z" fill="#FFC3BD"/>
<path d="M167.548 73.3428C165.084 76.2351 165.872 78.3376 167.955 84.0827C168.817 86.4616 170.147 88.8307 174.225 85.3264C178.303 81.8221 182.307 75.1591 177.046 74.0338C173.956 73.3576 170.74 73.1237 167.548 73.3428Z" fill="#263238"/>
<path d="M168.546 75.5343C162.879 74.9815 148.835 74.0339 149.882 68.1704C150.929 62.3069 160.452 64.0738 160.452 64.0738C160.452 64.0738 155.734 66.0481 165.639 67.5781C175.544 69.1082 180.558 73.8068 176.086 75.6922C174.945 76.2551 173.625 76.5399 172.287 76.5119C170.948 76.4838 169.648 76.1442 168.546 75.5343Z" fill="#263238"/>
<path d="M174.299 90.6273C172.67 91.9469 170.455 92.6958 168.139 92.7102C165.121 92.7102 164.443 90.3904 166.045 88.4359C167.449 86.669 170.714 84.5368 173.436 85.4746C176.159 86.4124 176.27 88.9986 174.299 90.6273Z" fill="#FFC3BD"/>
<path d="M144.374 87.9227C144.116 91.5849 144.547 96.5106 148.07 97.4879C151.594 98.4651 160.833 98.1492 163.765 96.866C168.348 94.8917 170.393 86.4913 172.525 84.9021C174.656 83.3128 170.628 82.5527 170.628 82.5527C170.628 82.5527 167.917 87.9227 163.494 88.1694C159.072 88.4162 144.695 83.2931 144.374 87.9227Z" fill="#263238"/>
<path d="M164 172.687C164 172.687 163.026 181.906 161.794 194.403C160.378 208.568 158.641 226.978 157.606 240.966C157.606 241.045 157.606 241.104 157.606 241.163C157.409 243.818 157.236 246.316 157.088 248.596C155.709 271.448 152.85 337.95 152.85 337.95H137.328C137.328 337.95 129.529 270.086 129.196 246.829C128.889 224.461 131.821 172.687 131.821 172.687H164Z" fill="#407BFF"/>
<path d="M153.996 334.159C154.058 334.159 153.86 338.216 153.86 338.216H135.997L135.381 333.656L153.996 334.159Z" fill="#263238"/>
<path opacity="0.2" d="M161.796 194.403C160.379 208.568 158.642 226.978 157.607 240.966C157.607 241.045 157.607 241.104 157.607 241.163C153.812 227.876 152.272 211.352 152.814 184.147L161.796 194.403Z" fill="black"/>
<path d="M149.191 172.687C149.191 172.687 157.815 225.675 162.928 246.72C168.472 269.71 189.649 337.999 189.649 337.999H206.416C206.416 337.999 193.185 271.566 190.315 248.803C187.21 224.125 180.779 172.736 180.779 172.736L149.191 172.687Z" fill="#407BFF"/>
<path d="M206.515 334.446C206.589 334.446 207.242 338.197 207.242 338.197H188.763L187.26 333.893L206.515 334.446Z" fill="#263238"/>
<path opacity="0.3" d="M199.9 330.014C199.863 330.012 199.829 330 199.802 329.98C199.775 329.96 199.757 329.934 199.752 329.905C199.629 329.224 187.703 270.066 185.128 249.613C182.332 227.412 176.505 178.205 176.505 177.711C176.501 177.678 176.513 177.646 176.538 177.62C176.563 177.595 176.6 177.578 176.64 177.573C176.66 177.57 176.681 177.571 176.701 177.575C176.721 177.579 176.74 177.586 176.756 177.596C176.773 177.607 176.786 177.619 176.796 177.634C176.805 177.649 176.811 177.665 176.813 177.681C176.874 178.175 182.689 227.383 185.436 249.583C188.011 270.026 199.937 329.184 200.06 329.866C200.064 329.899 200.052 329.933 200.027 329.96C200.002 329.987 199.966 330.006 199.924 330.014H199.9Z" fill="white"/>
<path d="M158.727 81.7434C158.554 82.3258 158.037 82.7305 157.569 82.6515C157.101 82.5726 156.867 82.0296 157.039 81.4571C157.212 80.8846 157.729 80.47 158.197 80.549C158.665 80.6279 158.924 81.1708 158.727 81.7434Z" fill="#263238"/>
<path d="M150.646 80.3416C150.473 80.9141 149.956 81.3287 149.488 81.2399C149.02 81.151 148.773 80.6278 148.946 80.0454C149.118 79.463 149.636 79.0583 150.104 79.1373C150.572 79.2163 150.806 79.7592 150.646 80.3416Z" fill="#263238"/>
<path d="M153.121 81.072C151.732 82.7011 150.075 84.172 148.193 85.445C148.601 85.8127 149.105 86.1034 149.669 86.2963C150.234 86.4892 150.845 86.5794 151.458 86.5604L153.121 81.072Z" fill="#ED847E"/>
<path d="M153.109 90.5285C153.081 90.5239 153.054 90.5148 153.031 90.5017C153.008 90.4887 152.988 90.4719 152.973 90.4525C152.958 90.4331 152.948 90.4115 152.944 90.3889C152.939 90.3663 152.941 90.3433 152.948 90.3212C152.956 90.2985 152.968 90.2771 152.986 90.2584C153.003 90.2396 153.025 90.2238 153.051 90.2118C153.076 90.1999 153.104 90.1921 153.133 90.1888C153.162 90.1856 153.191 90.187 153.219 90.1929C154.109 90.3805 155.04 90.3997 155.941 90.2489C156.841 90.0982 157.685 89.7816 158.406 89.3242C158.447 89.2923 158.503 89.2744 158.56 89.2744C158.617 89.2744 158.673 89.2923 158.714 89.3242C158.751 89.3584 158.772 89.4023 158.772 89.4476C158.772 89.493 158.751 89.5368 158.714 89.571C157.943 90.0775 157.032 90.4288 156.056 90.5953C155.081 90.7619 154.07 90.739 153.109 90.5285Z" fill="#FFC3BD"/>
<path d="M161.795 80.0552C161.729 80.0471 161.668 80.0256 161.616 79.9927C161.564 79.9599 161.524 79.9168 161.499 79.8677C161.298 79.4656 160.977 79.109 160.565 78.8286C160.153 78.5483 159.662 78.3526 159.134 78.2587C159.078 78.2515 159.025 78.2356 158.978 78.2117C158.93 78.1878 158.889 78.1566 158.857 78.1198C158.825 78.0829 158.802 78.0413 158.79 77.9973C158.779 77.9534 158.778 77.908 158.789 77.8638C158.807 77.7729 158.869 77.6913 158.961 77.636C159.052 77.5808 159.168 77.5563 159.282 77.5677C159.946 77.6736 160.569 77.9092 161.093 78.2535C161.617 78.5978 162.027 79.0403 162.288 79.5419C162.334 79.6271 162.336 79.7234 162.295 79.8101C162.253 79.8968 162.171 79.9671 162.066 80.0059C161.985 80.0466 161.89 80.064 161.795 80.0552Z" fill="#263238"/>
<path d="M147.69 77.3803C147.629 77.3651 147.574 77.338 147.53 77.3013C147.451 77.2368 147.406 77.1499 147.406 77.0595C147.406 76.9691 147.451 76.8823 147.53 76.8177C147.981 76.3947 148.552 76.0639 149.194 75.8528C149.837 75.6416 150.533 75.5562 151.225 75.6035C151.282 75.6094 151.336 75.6245 151.385 75.6479C151.434 75.6712 151.477 75.7023 151.51 75.7393C151.544 75.7762 151.567 75.8183 151.58 75.8628C151.592 75.9074 151.593 75.9535 151.583 75.9984C151.562 76.0901 151.498 76.1718 151.404 76.2269C151.31 76.2819 151.193 76.3061 151.078 76.2945C150.53 76.2633 149.981 76.3365 149.476 76.5081C148.97 76.6797 148.523 76.9448 148.17 77.2816C148.112 77.3357 148.035 77.3742 147.949 77.3919C147.863 77.4095 147.773 77.4055 147.69 77.3803Z" fill="#263238"/>
<path d="M177.602 117.98L190.315 114.664C190.315 114.664 202.019 138.552 206.331 139.944C212.232 141.829 224.219 146.854 231.673 148.058C232.523 149.045 233.669 152.164 233.311 153.26C222.63 155.481 200.886 150.792 196.599 147.712C186.866 140.684 177.602 117.98 177.602 117.98Z" fill="#FFC3BD"/>
<path d="M185.597 105.869C194.22 106.856 203.411 130.922 203.411 130.922L184.931 139.154C184.931 139.154 177.269 127.714 173.585 119.224C169.753 110.33 176.345 104.783 185.597 105.869Z" fill="#407BFF"/>
<path opacity="0.7" d="M185.597 105.869C194.22 106.856 203.411 130.922 203.411 130.922L184.931 139.154C184.931 139.154 177.269 127.714 173.585 119.224C169.753 110.33 176.345 104.783 185.597 105.869Z" fill="white"/>
<path d="M192.187 348.295C191.566 348.336 190.945 348.208 190.426 347.93C190.267 347.814 190.146 347.669 190.073 347.508C190 347.346 189.977 347.172 190.007 347.002C190.012 346.9 190.051 346.802 190.121 346.716C190.19 346.631 190.287 346.563 190.401 346.518C191.411 346.104 194.331 347.555 194.664 347.723C194.697 347.743 194.722 347.771 194.737 347.802C194.752 347.833 194.757 347.867 194.75 347.9C194.742 347.933 194.723 347.963 194.695 347.988C194.666 348.012 194.63 348.03 194.59 348.038C193.803 348.192 192.997 348.279 192.187 348.295ZM190.869 346.785C190.776 346.768 190.679 346.768 190.586 346.785C190.541 346.806 190.503 346.836 190.477 346.872C190.451 346.909 190.438 346.95 190.438 346.992C190.416 347.108 190.43 347.227 190.479 347.337C190.529 347.447 190.612 347.546 190.721 347.624C191.742 347.996 192.901 348.042 193.961 347.752C193.01 347.265 191.946 346.936 190.832 346.785H190.869Z" fill="#407BFF"/>
<path d="M194.492 348.038C194.46 348.047 194.425 348.047 194.393 348.038C193.457 347.624 191.683 346.064 191.929 345.205C191.968 345.077 192.059 344.962 192.189 344.88C192.318 344.797 192.479 344.752 192.644 344.751C192.807 344.732 192.972 344.742 193.13 344.78C193.287 344.817 193.432 344.882 193.556 344.969C194.603 345.669 194.788 347.782 194.788 347.871C194.795 347.902 194.789 347.934 194.771 347.963C194.753 347.991 194.725 348.014 194.689 348.029C194.66 348.043 194.626 348.052 194.592 348.053C194.558 348.055 194.523 348.05 194.492 348.038ZM192.743 345.077H192.644C192.361 345.077 192.336 345.205 192.324 345.245C192.188 345.729 193.322 346.943 194.246 347.515C194.205 346.685 193.853 345.883 193.235 345.215C193.098 345.121 192.924 345.068 192.743 345.067V345.077Z" fill="#407BFF"/>
<path d="M137.119 348.295C136.342 348.352 135.564 348.195 134.914 347.851C134.77 347.744 134.661 347.611 134.594 347.463C134.528 347.316 134.507 347.158 134.532 347.002C134.541 346.906 134.579 346.814 134.644 346.733C134.708 346.652 134.797 346.585 134.901 346.538C136.035 346.044 139.669 347.525 140.076 347.713C140.115 347.729 140.147 347.755 140.167 347.787C140.187 347.819 140.194 347.855 140.186 347.89C140.18 347.926 140.16 347.959 140.129 347.986C140.098 348.012 140.058 348.031 140.014 348.038C139.06 348.192 138.091 348.278 137.119 348.295ZM135.517 346.785C135.378 346.78 135.239 346.8 135.111 346.844C135.068 346.862 135.032 346.889 135.006 346.922C134.98 346.955 134.965 346.993 134.963 347.031C134.944 347.134 134.957 347.239 135 347.337C135.042 347.435 135.114 347.523 135.209 347.594C135.764 347.989 137.267 348.058 139.299 347.792C138.119 347.286 136.84 346.945 135.517 346.785Z" fill="#407BFF"/>
<path d="M139.965 348.038H139.878C138.782 347.634 136.651 346.064 136.835 345.225C136.835 345.028 137.07 344.781 137.661 344.741C137.881 344.714 138.106 344.726 138.319 344.778C138.532 344.829 138.728 344.918 138.893 345.038C140.026 345.798 140.223 347.772 140.223 347.861C140.228 347.892 140.222 347.924 140.204 347.952C140.187 347.98 140.159 348.003 140.125 348.019C140.101 348.03 140.075 348.038 140.047 348.041C140.02 348.045 139.992 348.044 139.965 348.038ZM137.821 345.077H137.698C137.304 345.077 137.279 345.225 137.267 345.265C137.143 345.768 138.597 347.012 139.731 347.555C139.66 346.724 139.263 345.933 138.597 345.294C138.383 345.144 138.106 345.063 137.821 345.067V345.077Z" fill="#407BFF"/>
<path d="M232.509 153.378L241.219 153.714L236.599 146.103C236.599 146.103 228.961 146.015 227.717 150.713L232.509 153.378Z" fill="#FFC3BD"/>
<path d="M248.279 150.032L243.659 143.31L236.6 146.103L241.22 153.714L248.279 150.032Z" fill="#FFC3BD"/>
<path d="M257.384 93.5886C256.509 88.4753 239.459 84.5268 231.512 90.3706C220.794 98.2182 222.507 122.817 222.507 136.143C238.374 133.014 262.496 133.764 266.71 135.61C267.609 129.48 267.4 95.089 257.384 93.5886Z" fill="#263238"/>
<path d="M224.513 141.227C224.341 143.557 224.02 145.679 223.663 147.88C223.306 150.082 222.825 152.233 222.296 154.405C221.231 158.762 219.769 163.051 217.922 167.238C217.454 168.294 216.9 169.34 216.395 170.387C215.889 171.433 215.286 172.45 214.584 173.526C213.185 175.593 211.534 177.543 209.656 179.35C206.092 182.791 202.012 185.868 197.508 188.51L194.133 185.549C197.353 182.348 200.343 179.002 203.089 175.529C204.374 173.897 205.491 172.184 206.428 170.406C206.884 169.557 207.315 168.57 207.771 167.652C208.227 166.734 208.572 165.747 209.003 164.79C210.462 160.869 211.639 156.884 212.526 152.855C212.957 150.822 213.339 148.779 213.697 146.725C214.054 144.672 214.337 142.579 214.547 140.655L224.513 141.227Z" fill="#FFB573"/>
<path d="M218.293 131.662C214.831 132.372 212.885 150.723 212.885 150.723L222.088 155.165C222.088 155.165 227.656 141.602 226.806 135.748C226.19 131.494 220.905 131.129 218.293 131.662Z" fill="#FFB573"/>
<path d="M193.42 185.618L185.498 190.385L195.218 192.172C195.218 192.172 199.407 188.411 198.015 185.341L193.42 185.618Z" fill="#FFB573"/>
<path d="M183.391 196.762L191.633 197.907L195.255 192.172L185.534 190.385L183.391 196.762Z" fill="#FFB573"/>
<path d="M236.796 347.328H228.886L224.008 318.474H237.473L236.796 347.328Z" fill="#FFB573"/>
<path opacity="0.2" d="M237.116 333.419H226.533L224.008 318.474H237.473L237.116 333.419Z" fill="black"/>
<path d="M298.039 336.923L290.401 338.503L274.902 312.206L288.047 309.225L298.039 336.923Z" fill="#FFB573"/>
<path opacity="0.2" d="M293.333 323.864L282.886 325.749L274.902 312.206L288.047 309.225L293.333 323.864Z" fill="black"/>
<path d="M288.564 337.427L298.715 333.982C298.886 333.917 299.081 333.907 299.262 333.952C299.442 333.998 299.595 334.097 299.688 334.228L304.259 340.26C304.366 340.415 304.432 340.586 304.451 340.763C304.47 340.939 304.443 341.117 304.371 341.285C304.299 341.452 304.184 341.606 304.033 341.735C303.882 341.865 303.699 341.968 303.495 342.037C299.935 343.192 298.136 343.606 293.639 345.126C290.904 346.064 287.011 347.653 283.217 348.946C279.422 350.24 277.636 347.298 279.077 346.488C285.496 342.866 285.73 340.803 287.258 338.384C287.543 337.955 288.004 337.616 288.564 337.427Z" fill="#263238"/>
<path d="M227.841 346.419H238.855C239.046 346.418 239.231 346.472 239.376 346.572C239.522 346.672 239.616 346.811 239.643 346.962L240.875 353.941C240.898 354.118 240.873 354.297 240.804 354.466C240.735 354.635 240.623 354.79 240.475 354.922C240.326 355.054 240.145 355.16 239.942 355.232C239.739 355.305 239.52 355.342 239.298 355.343C235.455 355.284 233.607 355.106 228.765 355.106C225.784 355.106 219.611 355.353 215.497 355.353C211.382 355.353 211.16 352.095 212.872 351.799C220.56 350.476 223.591 348.65 226.178 346.864C226.649 346.562 227.238 346.404 227.841 346.419Z" fill="#263238"/>
<path d="M217.688 131.652C217.688 131.652 213.006 132.965 222.369 179.083H262.199C261.534 166.092 261.509 158.077 269.258 131.425C263.682 130.498 258.029 129.901 252.343 129.638C246.323 129.292 240.279 129.292 234.258 129.638C226.497 130.201 217.688 131.652 217.688 131.652Z" fill="#407BFF"/>
<path d="M247.022 147.939C247.022 147.939 246.936 147.939 246.924 147.88C244.46 144.465 238.201 141.78 238.14 141.75C238.121 141.743 238.105 141.733 238.092 141.72C238.078 141.708 238.068 141.693 238.063 141.677C238.057 141.661 238.055 141.645 238.058 141.628C238.061 141.612 238.067 141.596 238.078 141.582C238.107 141.562 238.144 141.551 238.183 141.551C238.221 141.551 238.258 141.562 238.287 141.582C238.287 141.582 244.447 144.267 247.084 147.673C249.696 145.837 258.073 137.525 257.063 130.379C257.061 130.363 257.063 130.347 257.069 130.332C257.075 130.318 257.085 130.304 257.097 130.292C257.11 130.28 257.125 130.27 257.142 130.263C257.16 130.256 257.179 130.251 257.198 130.25C257.218 130.249 257.237 130.251 257.256 130.255C257.274 130.26 257.292 130.268 257.307 130.278C257.321 130.288 257.334 130.3 257.343 130.314C257.351 130.328 257.357 130.343 257.358 130.359C258.393 137.733 249.597 146.311 247.133 147.959C247.114 147.962 247.094 147.962 247.075 147.959C247.056 147.956 247.038 147.949 247.022 147.939Z" fill="white"/>
<path d="M226.362 146.607C226.331 146.617 226.296 146.617 226.264 146.607C225.345 145.77 224.864 144.681 224.921 143.567C224.588 139.697 226.572 133.291 229.713 130.527C229.743 130.504 229.783 130.491 229.824 130.491C229.866 130.491 229.905 130.504 229.935 130.527C229.949 130.538 229.96 130.551 229.967 130.565C229.975 130.58 229.979 130.595 229.979 130.611C229.979 130.626 229.975 130.642 229.967 130.656C229.96 130.67 229.949 130.683 229.935 130.695C226.843 133.429 224.896 139.737 225.217 143.527C225.183 144.523 225.574 145.498 226.325 146.291C228.371 144.07 234.087 141.355 234.333 141.267C234.351 141.253 234.372 141.243 234.396 141.237C234.419 141.23 234.444 141.229 234.469 141.232C234.493 141.235 234.516 141.242 234.537 141.254C234.557 141.265 234.573 141.28 234.585 141.297C234.597 141.315 234.604 141.334 234.605 141.354C234.606 141.373 234.601 141.393 234.591 141.411C234.581 141.429 234.566 141.445 234.547 141.458C234.528 141.47 234.505 141.479 234.481 141.484C234.42 141.484 228.321 144.346 226.473 146.548C226.447 146.578 226.407 146.599 226.362 146.607Z" fill="white"/>
<path d="M250.557 113.321C249.411 117.98 248.278 126.529 252.343 129.638C252.343 129.638 254.598 140.605 236.032 140.605C220.694 140.605 234.258 129.638 234.258 129.638C240.75 128.394 240.578 124.535 239.457 120.912L250.557 113.321Z" fill="#FFB573"/>
<path opacity="0.2" d="M246.023 116.421L239.457 120.942C239.735 121.783 239.921 122.641 240.011 123.508C242.475 123.222 245.9 121.04 246.171 118.967C246.326 118.119 246.275 117.254 246.023 116.421Z" fill="black"/>
<path d="M256.693 104.763C254.414 112.344 253.65 115.621 247.946 118.839C239.322 123.725 228.234 119.826 227.655 111.85C227.126 104.674 230.945 93.4799 240.985 91.7524C243.197 91.3654 245.494 91.4377 247.661 91.9623C249.828 92.4869 251.791 93.4464 253.365 94.7498C254.938 96.0533 256.07 97.6573 256.653 99.4097C257.235 101.162 257.249 103.005 256.693 104.763Z" fill="#FFB573"/>
<path d="M249.289 95.9082C250.386 103.312 250.829 110.774 257.383 108.958C263.937 107.142 258.024 95.9082 258.024 95.9082H249.289Z" fill="#263238"/>
<path d="M228.012 98.3169C237.414 95.9652 247.542 96.2895 256.68 99.2349C255.448 95.622 254.696 92.71 249.14 91.3379C243.584 89.9658 230.796 91.5748 228.012 98.3169Z" fill="#263238"/>
<path d="M222.37 179.083C222.37 179.083 214.633 239.613 215.274 263.58C215.939 288.505 222.998 328.632 222.998 328.632L239.014 328.227C239.014 328.227 238.509 289.966 239.679 265.486C240.911 238.833 251.543 179.083 251.543 179.083H222.37Z" fill="#263238"/>
<path d="M240.701 330.458H221.421L220.004 326.48L241.6 325.996L240.701 330.458Z" fill="#407BFF"/>
<path opacity="0.2" d="M239.556 194.137C229.762 209.93 237.585 238.675 241.047 249.415C242.821 233.335 245.815 213.691 248.143 199.26C246.665 191.027 244.065 186.871 239.556 194.137Z" fill="black"/>
<path d="M232.842 179.083C232.842 179.083 241.86 242.012 248.673 262.218C256.767 286.205 278.585 321.909 278.585 321.909L293.479 318.474C293.479 318.474 280.79 276.482 274.606 263.847C261.399 236.879 272.708 196.723 262.15 179.083H232.842Z" fill="#263238"/>
<path d="M296.227 320.014L278.449 323.963L275.246 320.31L294.97 315.039L296.227 320.014Z" fill="#407BFF"/>
<path d="M240.714 104.921C240.566 105.543 240.049 105.987 239.544 105.908C239.038 105.829 238.73 105.266 238.866 104.644C239.001 104.023 239.531 103.578 240.098 103.657C240.665 103.736 240.849 104.289 240.714 104.921Z" fill="#263238"/>
<path d="M231.905 103.667C231.769 104.289 231.24 104.743 230.673 104.654C230.106 104.565 229.86 104.022 229.995 103.401C230.131 102.779 230.661 102.325 231.166 102.413C231.671 102.502 232.04 103.045 231.905 103.667Z" fill="#263238"/>
<path d="M231.45 102.473L229.676 101.772C229.676 101.772 230.378 103.085 231.45 102.473Z" fill="#263238"/>
<path d="M234.407 105C233.384 106.326 232.14 107.535 230.711 108.593C231.059 108.875 231.479 109.094 231.943 109.234C232.407 109.374 232.903 109.431 233.397 109.402L234.407 105Z" fill="#ED893E"/>
<path d="M237.549 112.344C237.102 112.343 236.657 112.31 236.218 112.245C236.188 112.242 236.158 112.233 236.132 112.22C236.106 112.207 236.083 112.19 236.066 112.169C236.048 112.149 236.037 112.126 236.031 112.101C236.025 112.077 236.026 112.052 236.033 112.028C236.045 111.98 236.08 111.937 236.131 111.909C236.182 111.882 236.244 111.871 236.304 111.88C237.269 112.032 238.265 112.001 239.212 111.79C240.16 111.579 241.033 111.194 241.762 110.666C241.781 110.643 241.806 110.624 241.836 110.61C241.865 110.597 241.898 110.588 241.931 110.585C241.965 110.582 241.999 110.586 242.031 110.595C242.064 110.603 242.093 110.618 242.117 110.637C242.142 110.656 242.161 110.679 242.173 110.704C242.186 110.729 242.191 110.757 242.189 110.784C242.186 110.811 242.177 110.837 242.161 110.861C242.145 110.885 242.122 110.906 242.095 110.922C240.867 111.851 239.237 112.361 237.549 112.344Z" fill="#263238"/>
<path d="M257.099 110.478C256.372 111.87 254.985 112.975 253.243 113.548C250.927 114.298 249.547 112.689 249.917 110.824C250.287 109.146 251.937 106.737 254.377 106.786C254.908 106.804 255.425 106.929 255.881 107.147C256.338 107.366 256.718 107.673 256.989 108.04C257.259 108.407 257.411 108.822 257.43 109.248C257.45 109.674 257.336 110.097 257.099 110.478Z" fill="#FFB573"/>
<path d="M244.127 100.745C244.062 100.745 243.998 100.734 243.939 100.714C243.88 100.694 243.826 100.664 243.782 100.627C243.395 100.276 242.909 100.003 242.365 99.8314C241.821 99.6598 241.234 99.5941 240.652 99.6396C240.53 99.6541 240.406 99.6305 240.305 99.5735C240.204 99.5165 240.134 99.4306 240.11 99.3336C240.1 99.2855 240.101 99.2363 240.115 99.1887C240.129 99.1412 240.154 99.0963 240.19 99.0568C240.225 99.0172 240.27 98.9838 240.322 98.9584C240.374 98.933 240.432 98.9163 240.492 98.9091C241.224 98.8356 241.967 98.9049 242.657 99.1112C243.348 99.3174 243.966 99.6545 244.459 100.094C244.544 100.164 244.592 100.258 244.592 100.355C244.592 100.453 244.544 100.547 244.459 100.617C244.373 100.693 244.254 100.739 244.127 100.745Z" fill="#263238"/>
<path d="M229.713 99.7877C229.653 99.7879 229.594 99.7783 229.539 99.7596C229.484 99.741 229.434 99.7136 229.392 99.6792C229.307 99.6091 229.26 99.5153 229.26 99.4176C229.26 99.3199 229.307 99.226 229.392 99.156C229.888 98.7171 230.509 98.3811 231.202 98.1765C231.895 97.9719 232.639 97.9049 233.372 97.9813C233.433 97.9882 233.491 98.0053 233.544 98.0314C233.596 98.0575 233.641 98.0921 233.676 98.133C233.711 98.1739 233.735 98.2202 233.746 98.2688C233.757 98.3175 233.756 98.3675 233.741 98.4156C233.731 98.464 233.709 98.5102 233.676 98.5515C233.642 98.5928 233.599 98.6283 233.549 98.6559C233.498 98.6836 233.441 98.7028 233.381 98.7124C233.321 98.722 233.259 98.7218 233.199 98.7118C232.617 98.6663 232.03 98.732 231.486 98.9036C230.942 99.0752 230.457 99.3478 230.07 99.6989C230.022 99.7331 229.965 99.7587 229.903 99.774C229.842 99.7893 229.777 99.794 229.713 99.7877Z" fill="#263238"/>
<path d="M273.571 139.825C275.839 144.247 277.776 148.773 279.374 153.378C281.106 158.042 282.302 162.823 282.947 167.662C283.045 168.274 283.082 168.916 283.107 169.547V170.534V170.771C283.107 170.87 283.107 170.88 283.107 171.077C283.108 171.375 283.083 171.671 283.033 171.966C282.7 173.666 281.854 175.275 280.569 176.655C278.67 178.735 276.47 180.627 274.015 182.291C269.47 185.421 264.57 188.203 259.379 190.603L256.496 187.365C260.672 184.295 264.898 181.146 268.569 177.859C270.337 176.342 271.913 174.688 273.276 172.923C273.694 172.411 273.968 171.832 274.076 171.225V170.89L273.965 170.11C273.904 169.587 273.842 169.074 273.719 168.54C272.797 164.168 271.488 159.853 269.801 155.629C268.126 151.355 266.229 147.002 264.245 142.866L273.571 139.825Z" fill="#FFB573"/>
<path d="M269.222 131.425C273.127 132.698 278.018 149.835 278.018 149.835L269.715 155.293C269.715 155.293 261.892 142.52 261.547 136.627C261.276 132.205 265.773 130.29 269.222 131.425Z" fill="#FFB573"/>
<path d="M284.091 339.904C283.912 339.832 283.755 339.727 283.634 339.599C283.512 339.471 283.428 339.322 283.389 339.164C283.345 339.058 283.338 338.944 283.368 338.834C283.398 338.725 283.465 338.624 283.561 338.542C284.411 337.802 287.898 338.286 288.304 338.345C288.348 338.351 288.389 338.368 288.422 338.392C288.455 338.417 288.478 338.448 288.489 338.483C288.496 338.518 288.49 338.555 288.472 338.588C288.455 338.621 288.427 338.649 288.391 338.671C287.343 339.292 285.409 340.28 284.227 339.954L284.091 339.904ZM287.664 338.631C286.259 338.473 284.35 338.404 283.906 338.789C283.873 338.83 283.856 338.878 283.856 338.927C283.856 338.976 283.873 339.024 283.906 339.065C283.928 339.185 283.99 339.298 284.086 339.392C284.181 339.486 284.306 339.557 284.448 339.598C285.015 339.776 286.222 339.421 287.664 338.631Z" fill="#407BFF"/>
<path d="M286.68 338.286C285.657 337.891 284.61 337.298 284.462 336.726C284.427 336.581 284.454 336.431 284.539 336.3C284.624 336.169 284.762 336.065 284.931 336.005C285.084 335.934 285.255 335.89 285.431 335.876C285.608 335.863 285.786 335.88 285.953 335.926C287.308 336.282 288.417 338.365 288.417 338.453C288.435 338.481 288.445 338.511 288.445 338.542C288.445 338.573 288.435 338.604 288.417 338.631C288.396 338.659 288.364 338.682 288.327 338.696C288.29 338.71 288.248 338.715 288.208 338.71C287.675 338.63 287.16 338.487 286.68 338.286ZM285.953 336.311L285.805 336.262C285.7 336.233 285.589 336.222 285.478 336.231C285.368 336.239 285.261 336.267 285.165 336.311C284.906 336.43 284.894 336.548 284.918 336.637C285.066 337.18 286.705 337.999 287.85 338.256C287.44 337.489 286.785 336.822 285.953 336.321V336.311Z" fill="#407BFF"/>
<path d="M224.219 347.792C223.38 347.852 222.542 347.681 221.841 347.308C221.682 347.199 221.559 347.059 221.486 346.902C221.413 346.745 221.391 346.576 221.422 346.41C221.429 346.306 221.469 346.205 221.538 346.117C221.607 346.029 221.703 345.956 221.816 345.906C223.048 345.383 226.929 346.982 227.36 347.17C227.406 347.183 227.444 347.21 227.467 347.244C227.49 347.279 227.495 347.319 227.483 347.357C227.477 347.396 227.455 347.431 227.422 347.46C227.389 347.488 227.346 347.507 227.298 347.515C226.284 347.682 225.254 347.775 224.219 347.792ZM222.469 346.173C222.322 346.167 222.175 346.187 222.038 346.232C221.991 346.252 221.952 346.282 221.924 346.319C221.896 346.355 221.88 346.396 221.878 346.439C221.859 346.548 221.874 346.659 221.921 346.762C221.968 346.866 222.047 346.958 222.149 347.031C222.74 347.466 224.354 347.535 226.535 347.249C225.246 346.704 223.85 346.34 222.408 346.173H222.469Z" fill="#407BFF"/>
<path d="M227.2 347.515H227.101C225.869 347.091 223.615 345.393 223.8 344.554C223.8 344.337 224.034 344.08 224.674 344.031C224.896 344.015 225.119 344.035 225.33 344.089C225.542 344.144 225.737 344.231 225.906 344.346C227.138 345.166 227.372 347.308 227.385 347.377C227.388 347.403 227.385 347.429 227.375 347.453C227.364 347.478 227.348 347.501 227.325 347.519C227.303 347.538 227.276 347.553 227.246 347.562C227.215 347.572 227.183 347.576 227.151 347.574L227.2 347.515ZM224.859 344.337H224.724C224.293 344.337 224.268 344.504 224.256 344.554C224.157 345.087 225.722 346.419 226.917 347.002C226.827 346.11 226.397 345.262 225.685 344.573C225.455 344.416 225.161 344.332 224.859 344.337Z" fill="#407BFF"/>
<path d="M262.804 177.208L263.814 180.06C263.962 180.287 263.629 180.514 263.174 180.514H222.174C221.816 180.514 221.521 180.366 221.496 180.189L221.139 177.336C221.139 177.138 221.422 176.971 221.816 176.971H262.151C262.276 176.962 262.402 176.979 262.516 177.02C262.631 177.062 262.73 177.126 262.804 177.208Z" fill="#407BFF"/>
<path opacity="0.8" d="M262.804 177.208L263.814 180.06C263.962 180.287 263.629 180.514 263.174 180.514H222.174C221.816 180.514 221.521 180.366 221.496 180.189L221.139 177.336C221.139 177.138 221.422 176.971 221.816 176.971H262.151C262.276 176.962 262.402 176.979 262.516 177.02C262.631 177.062 262.73 177.126 262.804 177.208Z" fill="#263238"/>
<path d="M257.384 180.82H258.468C258.677 180.82 258.837 180.731 258.825 180.623L258.32 176.911C258.32 176.803 258.123 176.714 257.901 176.714H256.817C256.607 176.714 256.447 176.803 256.46 176.911L256.965 180.623C256.977 180.731 257.162 180.82 257.384 180.82Z" fill="#407BFF"/>
<path d="M225.204 180.82H226.288C226.51 180.82 226.67 180.731 226.658 180.623L226.153 176.911C226.153 176.803 225.943 176.714 225.734 176.714H224.65C224.428 176.714 224.268 176.803 224.28 176.911L224.785 180.623C224.81 180.731 224.995 180.82 225.204 180.82Z" fill="#407BFF"/>
<path d="M241.294 180.82H242.378C242.587 180.82 242.76 180.731 242.735 180.623L242.23 176.911C242.23 176.803 242.033 176.714 241.811 176.714H240.739C240.518 176.714 240.357 176.803 240.37 176.911L240.875 180.623C240.887 180.731 241.084 180.82 241.294 180.82Z" fill="#407BFF"/>
<path d="M257.665 186.654L247.107 187.385L254.167 193.031C254.167 193.031 260.216 191.619 261.053 188.431L257.665 186.654Z" fill="#FFB573"/>
<path d="M241.072 191.886L247.294 196.358L255.659 192.587L247.109 187.385L241.072 191.886Z" fill="#FFB573"/>
<path d="M240.233 103.726L238.459 103.025C238.459 103.025 239.186 104.328 240.233 103.726Z" fill="#263238"/>
<path d="M380.273 104.753C380.273 105.395 380.643 105.947 381.173 105.987C381.702 106.026 382.158 105.543 382.183 104.901C382.208 104.259 381.813 103.707 381.284 103.667C380.754 103.628 380.298 104.161 380.273 104.753Z" fill="#263238"/>
<path d="M381.049 103.677L383.008 103.391C383.008 103.391 381.911 104.516 381.049 103.677Z" fill="#263238"/>
<path d="M380.925 105.424C381.576 106.955 382.479 108.409 383.611 109.748C383.174 109.95 382.688 110.073 382.185 110.109C381.683 110.145 381.177 110.092 380.703 109.955L380.925 105.424Z" fill="#A02724"/>
<path d="M381.567 100.558C381.49 100.572 381.409 100.572 381.332 100.558C380.782 100.355 380.181 100.257 379.576 100.273C378.971 100.288 378.379 100.416 377.846 100.647C377.739 100.699 377.611 100.716 377.49 100.693C377.368 100.671 377.261 100.612 377.193 100.528C377.156 100.488 377.13 100.442 377.117 100.393C377.103 100.345 377.102 100.294 377.113 100.245C377.125 100.196 377.149 100.149 377.184 100.108C377.219 100.067 377.264 100.032 377.316 100.005C377.978 99.7083 378.717 99.5404 379.475 99.5147C380.232 99.489 380.987 99.6062 381.677 99.8568C381.792 99.8962 381.884 99.9691 381.934 100.061C381.985 100.152 381.99 100.256 381.948 100.35C381.914 100.409 381.86 100.459 381.793 100.496C381.725 100.532 381.647 100.553 381.567 100.558Z" fill="#263238"/>
<path d="M353.242 100.854C353.476 108.751 353.366 112.137 358.17 116.579C365.439 123.252 377.635 121.889 380.346 114.21C382.81 107.3 382.034 95.4543 372.436 91.5848C362.839 87.7153 353.008 92.9273 353.242 100.854Z" fill="#B55B52"/>
<path d="M338.952 139.993C337.35 143.547 335.773 147.347 334.319 151.069C332.866 154.79 331.535 158.581 330.365 162.361L329.995 163.595C329.949 163.668 329.928 163.75 329.934 163.832C329.913 163.947 329.913 164.063 329.934 164.178C329.965 164.847 330.106 165.511 330.352 166.152C331.018 167.827 331.884 169.447 332.94 170.989C335.265 174.37 337.84 177.636 340.652 180.771L336.672 183.821C332.61 181.11 328.955 178.029 325.782 174.641C324.06 172.809 322.613 170.821 321.47 168.718C320.802 167.483 320.346 166.182 320.115 164.849C320.043 164.463 320.01 164.074 320.016 163.684C319.993 163.262 320.018 162.839 320.09 162.42C320.152 161.907 320.213 161.729 320.263 161.433L320.41 160.663C321.246 156.593 322.343 152.56 323.7 148.581C325.067 144.562 326.712 140.608 328.628 136.736L338.952 139.993Z" fill="#B55B52"/>
<path d="M332.472 128.424C326.312 130.852 322.789 144.445 322.789 144.445L338.521 150.634C338.521 150.634 348.094 140.566 345.186 132.688C343.72 128.76 338.521 126.035 332.472 128.424Z" fill="#263238"/>
<path d="M339.742 179.636L346.012 186.95L338.017 186.733C338.017 186.733 334.013 183.525 336.366 180.81L339.742 179.636Z" fill="#B55B52"/>
<path d="M345.063 190.089L340.184 192.202L338.016 186.733L346.011 186.95L345.063 190.089Z" fill="#B55B52"/>
<path d="M354.487 110.922C355.941 115.67 355.46 123.755 351.469 126.845C351.469 126.845 355.842 131.553 366.93 131.662C379.139 131.78 372.474 126.914 372.474 126.914C365.747 125.591 365.673 121.682 366.622 118.03L354.487 110.922Z" fill="#B55B52"/>
<path d="M348.735 90.5779C342.908 90.8148 338.645 92.7792 343.462 104.457C347.158 113.341 334.42 126.173 346.481 122.728C350.685 123.942 355.211 124.259 359.613 123.646C359.613 123.646 384.043 130.132 380.224 116.845C376.405 103.559 383.452 94.0328 378.229 88.6629C373.005 83.293 350.103 83.7668 348.735 90.5779Z" fill="#263238"/>
<path d="M347.934 128.306C347.327 128.284 346.734 128.156 346.197 127.929C345.66 127.702 345.193 127.382 344.829 126.993C343.757 125.788 344.829 125.216 345.741 124.031C346.899 122.491 343.597 120.438 347.293 119.471C350.989 118.503 366.61 123.804 372.142 122.432C376.022 121.445 376.762 124.002 375.924 125.729C374.556 128.572 378.388 131.484 375.135 132.116C372.339 132.639 353.576 128.621 347.934 128.306Z" fill="#407BFF"/>
<path d="M370.738 346.795L380.754 347.377L382.984 328.987L372.968 328.395L370.738 346.795Z" fill="#B55B52"/>
<path d="M318.613 336.598L328.173 339.559L338.608 323.36L329.048 320.399L318.613 336.598Z" fill="#B55B52"/>
<path d="M330.316 337.674L320.658 332.56C320.5 332.469 320.306 332.428 320.113 332.444C319.92 332.461 319.741 332.534 319.611 332.649L313.845 337.891C313.708 338.036 313.611 338.202 313.559 338.378C313.507 338.555 313.502 338.739 313.543 338.917C313.585 339.096 313.673 339.265 313.801 339.415C313.93 339.564 314.096 339.691 314.288 339.786C317.701 341.523 319.438 342.224 323.688 344.475C326.3 345.857 329.959 348.088 333.544 349.993C337.129 351.898 339.519 349.282 338.213 348.246C332.361 343.577 332.509 341.494 331.413 338.838C331.215 338.365 330.83 337.956 330.316 337.674Z" fill="#263238"/>
<path d="M381.333 346.242H370.097C369.904 346.238 369.716 346.291 369.568 346.391C369.42 346.491 369.324 346.631 369.297 346.785L368.065 353.912C368.042 354.092 368.067 354.275 368.138 354.447C368.209 354.62 368.324 354.779 368.476 354.914C368.628 355.048 368.814 355.156 369.021 355.23C369.228 355.304 369.452 355.343 369.678 355.343C373.596 355.284 375.481 355.106 380.434 355.106C383.464 355.106 389.76 355.353 393.985 355.353C398.211 355.353 398.383 352.026 396.634 351.73C388.774 350.378 385.682 348.512 383.021 346.735C382.55 346.415 381.951 346.239 381.333 346.242Z" fill="#263238"/>
<path opacity="0.2" d="M382.983 328.987L381.751 339.213L371.809 337.891L372.954 328.395L382.983 328.987Z" fill="black"/>
<path opacity="0.2" d="M329.048 320.409L338.608 323.37L334.283 330.063L324.588 327.309L329.048 320.409Z" fill="black"/>
<path d="M344.041 176.398L384.906 176.793C391.719 130.092 386.902 129.312 386.902 129.312C383.69 128.479 380.42 127.8 377.108 127.279L376.541 127.2C373.831 126.835 373.276 126.795 369.703 126.499C363.63 126.243 358.012 126.134 351.15 126.331H349.832C348.6 126.391 347.368 126.46 346.197 126.539C345.397 126.539 344.608 126.657 343.857 126.726L341.294 126.983C336.958 127.447 333.902 127.97 333.902 127.97C343.475 155.106 343.931 163.23 344.041 176.398Z" fill="#263238"/>
<path opacity="0.2" d="M382.539 143.863C382.655 148.655 384.319 153.341 387.368 157.465C388.329 148.384 388.6 142.234 388.539 138.058C385.459 138.216 382.453 139.47 382.539 143.863Z" fill="black"/>
<path d="M374.125 176.684C374.125 176.684 365.304 226.159 360.931 256.977C356.311 289.502 337.646 328.641 337.646 328.641L323.836 324.831C323.836 324.831 332.965 288.643 335.983 258.092C342.143 196.071 331.819 190.731 344.04 176.408L374.125 176.684Z" fill="#407BFF"/>
<path opacity="0.5" d="M374.125 176.684C374.125 176.684 365.304 226.159 360.931 256.977C356.311 289.502 337.646 328.641 337.646 328.641L323.836 324.831C323.836 324.831 332.965 288.643 335.983 258.092C342.143 196.071 331.819 190.731 344.04 176.408L374.125 176.684Z" fill="black"/>
<path opacity="0.2" d="M364.54 192.014C358.639 202.458 361.3 219.377 364.947 230.69C367.189 216.87 369.579 202.784 371.353 192.508C369.148 189.112 366.782 188.066 364.54 192.014Z" fill="black"/>
<path d="M339.112 329.411L321.877 324.644L323.183 320.646L343.141 324.831L339.112 329.411Z" fill="#263238"/>
<path d="M334.628 340.813C334.518 340.853 334.402 340.882 334.283 340.902C333.051 341.05 331.228 339.737 330.267 338.927C330.232 338.902 330.207 338.868 330.196 338.831C330.185 338.794 330.188 338.756 330.205 338.72C330.221 338.684 330.252 338.653 330.292 338.631C330.332 338.61 330.379 338.599 330.427 338.602C330.846 338.602 334.505 338.71 335.207 339.589C335.277 339.686 335.314 339.797 335.314 339.91C335.314 340.022 335.277 340.133 335.207 340.23C335.097 340.469 334.894 340.674 334.628 340.813ZM331.018 339.026C332.349 340.013 333.482 340.605 334.197 340.526C334.338 340.504 334.47 340.452 334.578 340.376C334.687 340.3 334.767 340.202 334.813 340.092C334.844 340.049 334.861 339.999 334.861 339.949C334.861 339.899 334.844 339.849 334.813 339.806C334.443 339.342 332.484 339.095 331.018 339.026Z" fill="#407BFF"/>
<path d="M384.374 176.872C384.374 176.872 399.232 236.099 397.717 260.323C396.127 285.524 383.992 336.686 383.992 336.686L369.517 335.196C369.517 335.196 372.966 285.366 372.634 260.481C372.289 233.355 354.438 176.576 354.438 176.576L384.374 176.872Z" fill="#407BFF"/>
<path opacity="0.5" d="M384.374 176.872C384.374 176.872 399.232 236.099 397.717 260.323C396.127 285.524 383.992 336.686 383.992 336.686L369.517 335.196C369.517 335.196 372.966 285.366 372.634 260.481C372.289 233.355 354.438 176.576 354.438 176.576L384.374 176.872Z" fill="black"/>
<path d="M391.348 132.106C394.885 136.485 398.106 141.023 400.994 145.699C402.46 148.038 403.852 150.417 405.084 152.895C406.403 155.406 407.486 157.993 408.324 160.634L408.645 161.621V161.749V161.947L408.743 162.341C408.743 162.608 408.829 162.865 408.866 163.121C408.955 164.074 408.897 165.032 408.694 165.974C408.333 167.558 407.708 169.095 406.834 170.544C405.296 173.06 403.407 175.428 401.203 177.602C397.061 181.706 392.377 185.44 387.233 188.737L383.426 185.549C387.363 181.792 390.993 177.835 394.292 173.703C397.347 169.755 400.181 165.086 398.481 162.845C397.551 160.617 396.456 158.435 395.204 156.31C393.972 154.119 392.567 151.927 391.114 149.756C389.66 147.584 388.145 145.442 386.605 143.3C385.065 141.158 383.438 138.996 381.898 136.953L391.348 132.106Z" fill="#B55B52"/>
<path d="M386.741 185.272L392.667 190.149L386.446 193.268C386.446 193.268 380.052 189.132 383.551 185.48L386.741 185.272Z" fill="#B55B52"/>
<path d="M392.371 193.969L387.283 198.184L386.445 193.268L392.667 190.158L392.371 193.969Z" fill="#B55B52"/>
<path d="M386.531 129.214C393.997 131.701 400.206 138.749 402.485 142.974L389.956 155.175C389.956 155.175 378.572 141.355 378.572 136.923C378.585 132.284 383.71 128.276 386.531 129.214Z" fill="#263238"/>
<path d="M386.198 337.348L366.4 335.216L366.499 331.307L388.058 332.086L386.198 337.348Z" fill="#263238"/>
<path d="M333.469 338.444C332.516 338.812 331.472 339.004 330.414 339.006C330.373 339.002 330.333 338.99 330.299 338.971C330.265 338.952 330.237 338.927 330.217 338.898C330.195 338.87 330.184 338.837 330.184 338.804C330.184 338.771 330.195 338.738 330.217 338.71C330.279 338.631 331.794 336.736 333.223 336.608C333.409 336.586 333.6 336.596 333.78 336.639C333.961 336.682 334.128 336.755 334.27 336.854C334.428 336.94 334.546 337.064 334.606 337.209C334.666 337.353 334.665 337.51 334.603 337.654C334.351 338.015 333.95 338.294 333.469 338.444ZM330.882 338.621C332.114 338.562 333.925 338.019 334.172 337.506C334.172 337.427 334.233 337.308 333.987 337.141C333.893 337.079 333.785 337.032 333.668 337.005C333.552 336.978 333.43 336.97 333.309 336.983C332.459 337.121 331.4 338.029 330.882 338.621Z" fill="#407BFF"/>
<path d="M385.102 347.644C384.042 347.627 382.986 347.531 381.949 347.357C381.901 347.349 381.858 347.33 381.825 347.302C381.792 347.274 381.77 347.238 381.764 347.199C381.753 347.161 381.757 347.121 381.777 347.085C381.797 347.05 381.832 347.02 381.875 347.002C382.33 346.814 386.322 345.176 387.542 345.719C387.656 345.772 387.752 345.846 387.823 345.936C387.894 346.025 387.937 346.127 387.948 346.232C387.982 346.402 387.961 346.576 387.885 346.737C387.809 346.898 387.683 347.04 387.517 347.15C386.808 347.533 385.954 347.708 385.102 347.644ZM382.737 347.091C384.955 347.377 386.593 347.298 387.197 346.864C387.305 346.79 387.387 346.694 387.434 346.587C387.482 346.479 387.493 346.364 387.468 346.252C387.469 346.211 387.455 346.171 387.429 346.136C387.403 346.101 387.365 346.073 387.32 346.054C386.642 345.758 384.376 346.459 382.737 347.091Z" fill="#407BFF"/>
<path d="M381.999 347.357C381.954 347.367 381.907 347.367 381.863 347.357C381.827 347.337 381.799 347.311 381.779 347.28C381.76 347.249 381.751 347.214 381.752 347.18C381.752 347.032 382.097 343.764 384.339 343.764H384.536C385.189 343.823 385.386 344.08 385.436 344.297C385.645 345.195 383.304 346.933 382.097 347.377L381.999 347.357ZM384.364 344.11C382.922 344.11 382.43 346.015 382.282 346.824C383.514 346.232 385.103 344.85 384.968 344.327C384.968 344.277 384.968 344.149 384.499 344.12L384.364 344.11Z" fill="#407BFF"/>
<path d="M343.313 174.493L341.65 177.375C341.515 177.602 341.872 177.839 342.34 177.839L385.2 178.244C385.57 178.244 385.866 178.106 385.878 177.918L386.075 175.026C386.075 174.829 385.755 174.651 385.36 174.651L343.966 174.256C343.841 174.247 343.715 174.264 343.601 174.306C343.486 174.347 343.387 174.412 343.313 174.493Z" fill="#407BFF"/>
<path d="M349.091 178.195H347.982C347.76 178.195 347.588 178.106 347.6 177.997L347.896 174.226C347.896 174.118 348.093 174.029 348.315 174.039H349.424C349.645 174.039 349.818 174.128 349.805 174.236L349.51 177.997C349.497 178.135 349.313 178.195 349.091 178.195Z" fill="#407BFF"/>
<path opacity="0.5" d="M349.091 178.195H347.982C347.76 178.195 347.588 178.106 347.6 177.997L347.896 174.226C347.896 174.118 348.093 174.029 348.315 174.039H349.424C349.645 174.039 349.818 174.128 349.805 174.236L349.51 177.997C349.497 178.135 349.313 178.195 349.091 178.195Z" fill="black"/>
<path d="M377.107 178.53H375.998C375.776 178.53 375.604 178.441 375.604 178.323L375.899 174.562C375.899 174.453 376.096 174.365 376.318 174.365H377.427C377.649 174.365 377.821 174.453 377.809 174.562L377.513 178.323C377.513 178.441 377.316 178.53 377.107 178.53Z" fill="#407BFF"/>
<path opacity="0.5" d="M377.107 178.53H375.998C375.776 178.53 375.604 178.441 375.604 178.323L375.899 174.562C375.899 174.453 376.096 174.365 376.318 174.365H377.427C377.649 174.365 377.821 174.453 377.809 174.562L377.513 178.323C377.513 178.441 377.316 178.53 377.107 178.53Z" fill="black"/>
<path d="M436.623 345.472L427.42 344.416L428.024 327.082L437.214 328.138L436.623 345.472Z" fill="#FFC3BD"/>
<path d="M501.314 347.762H492.037L489.721 330.527H499.01L501.314 347.762Z" fill="#FFC3BD"/>
<path d="M491.274 346.893H502.645C502.829 346.896 503.007 346.948 503.15 347.041C503.293 347.134 503.393 347.263 503.434 347.407L505.269 354.02C505.312 354.182 505.309 354.349 505.26 354.51C505.21 354.67 505.116 354.819 504.985 354.947C504.853 355.074 504.688 355.176 504.5 355.244C504.313 355.313 504.108 355.347 503.902 355.343C500.206 355.343 497.607 355.116 493.024 355.116C490.19 355.116 481.69 355.353 477.784 355.353C473.879 355.353 473.374 352.263 474.975 351.987C482.133 350.733 487.517 349.025 489.759 347.357C490.177 347.061 490.716 346.896 491.274 346.893Z" fill="#263238"/>
<path d="M427.643 343.577L437.683 344.722C437.864 344.745 438.03 344.816 438.154 344.923C438.279 345.03 438.356 345.168 438.373 345.314L439.026 352.076C439.042 352.239 439.011 352.403 438.936 352.556C438.861 352.709 438.744 352.846 438.593 352.957C438.442 353.068 438.262 353.15 438.066 353.198C437.87 353.245 437.664 353.256 437.461 353.231C433.852 352.767 428.653 351.997 424.094 351.474C418.772 350.862 414.14 350.565 407.894 349.855C404.124 349.42 403.619 346.242 405.258 346.143C412.649 345.709 418.563 346.252 425.326 343.892C426.045 343.613 426.849 343.504 427.643 343.577Z" fill="#263238"/>
<path d="M457.16 119.718C456.68 124.87 455.928 129.885 454.98 134.959C454.512 137.486 453.957 140.013 453.366 142.54C453.07 143.803 452.762 145.067 452.417 146.33L451.888 148.226L451.629 149.213C451.53 149.529 451.382 149.943 451.272 150.308C450.322 152.988 449.085 155.597 447.576 158.107C446.163 160.489 444.664 162.792 443.079 165.017C439.946 169.497 436.503 173.834 432.767 178.007L426.645 175.233L433.544 161.414C434.665 159.114 435.712 156.814 436.685 154.504C437.629 152.384 438.386 150.213 438.952 148.008C438.952 147.752 439.063 147.554 439.124 147.258L439.272 146.34L439.58 144.524L440.147 140.862L441.169 133.488L443.141 118.681L457.16 119.718Z" fill="#FFC3BD"/>
<path d="M449.671 112.058C441.047 113.815 437.043 138.276 437.043 138.276L458.356 140.813C458.356 140.813 460.389 134.228 463.666 125.216C465.686 119.57 460.376 109.856 449.671 112.058Z" fill="#407BFF"/>
<path d="M428.247 173.911L420.707 179.054L430.403 182.814C431.406 182.028 432.19 181.081 432.703 180.034C433.217 178.988 433.449 177.867 433.384 176.744L428.247 173.911Z" fill="#FFC3BD"/>
<path d="M416.555 183.762L425.08 186.398L430.402 182.814L420.706 179.053L416.555 183.762Z" fill="#FFC3BD"/>
<path opacity="0.2" d="M428.037 327.082L427.717 336.025L436.92 337.081L437.228 328.138L428.037 327.082Z" fill="black"/>
<path opacity="0.2" d="M499.01 330.527H489.721L490.916 339.411H500.205L499.01 330.527Z" fill="black"/>
<path d="M501.29 113.805C498.768 121.878 497.001 130.091 496.005 138.374C495.266 144.149 494.884 149.657 494.674 154.652C494.206 166.359 494.748 175.273 494.391 178.293C487.122 178.007 459.723 176.931 444.78 176.319C443.314 117.842 449.313 112.107 449.313 112.107C453.216 111.456 457.166 111.001 461.14 110.745C461.978 110.686 462.828 110.646 463.69 110.617C470.735 110.57 477.777 110.85 484.782 111.456C486.112 111.554 487.455 111.692 488.761 111.841C495.414 112.61 501.29 113.805 501.29 113.805Z" fill="#407BFF"/>
<path d="M459.526 110.696C460.684 115.128 472.412 145.728 495.388 156.014C495.484 156.056 495.565 156.117 495.624 156.192C495.682 156.266 495.715 156.351 495.721 156.439C495.795 157.367 495.819 158.561 495.832 159.262C495.833 159.338 495.813 159.413 495.774 159.483C495.736 159.553 495.679 159.615 495.608 159.665C495.536 159.716 495.452 159.754 495.361 159.776C495.27 159.798 495.175 159.805 495.08 159.795C492.382 159.499 482.219 156.893 467.743 138.276C460.61 129.095 455.67 114.674 454.869 111.623C454.831 111.48 454.864 111.33 454.96 111.205C455.056 111.08 455.209 110.99 455.386 110.952L458.651 110.261C458.744 110.241 458.841 110.236 458.937 110.247C459.033 110.258 459.124 110.285 459.206 110.326C459.288 110.366 459.359 110.42 459.414 110.484C459.469 110.548 459.507 110.62 459.526 110.696Z" fill="#263238"/>
<path d="M461.794 127.328C463.161 129.776 456.632 140.299 464.96 151.019C473.288 161.739 480.544 152.924 489.057 156.853C479.238 148.236 461.794 127.328 461.794 127.328Z" fill="#263238"/>
<path d="M480.975 154.504H480.852C465.624 148.867 462.988 131.563 462.963 131.395C462.958 131.363 462.961 131.33 462.972 131.298C462.983 131.267 463.002 131.237 463.027 131.212C463.052 131.186 463.083 131.164 463.119 131.149C463.155 131.133 463.194 131.123 463.234 131.119C463.274 131.115 463.315 131.117 463.353 131.126C463.392 131.135 463.428 131.15 463.459 131.17C463.49 131.191 463.516 131.216 463.534 131.244C463.553 131.273 463.564 131.304 463.567 131.336C463.567 131.514 466.191 148.542 481.11 154.04C481.177 154.062 481.232 154.103 481.265 154.155C481.298 154.206 481.307 154.266 481.291 154.322C481.275 154.379 481.234 154.429 481.176 154.464C481.118 154.499 481.047 154.517 480.975 154.514V154.504Z" fill="white"/>
<path opacity="0.2" d="M489.094 124.713C489.165 130.805 491.447 136.748 495.66 141.819C495.771 140.684 495.907 139.529 496.054 138.374C496.609 134.031 497.348 129.54 498.358 124.989L489.094 124.713Z" fill="black"/>
<path d="M483.87 92.3154C482.207 97.6952 480.261 107.606 484.782 111.426C482.583 113.102 479.96 114.379 477.09 115.17C474.22 115.96 471.171 116.245 468.15 116.006C462.323 115.681 462.225 112.393 463.641 110.636C471.304 109.491 471.378 104.98 470.331 100.706L483.87 92.3154Z" fill="#FFC3BD"/>
<path opacity="0.2" d="M478.362 95.7603L470.379 100.696C470.648 101.689 470.805 102.7 470.847 103.716C473.755 103.499 477.882 101.11 478.337 98.7019C478.57 97.7308 478.579 96.7337 478.362 95.7603Z" fill="black"/>
<path d="M483.61 82.6613C484.239 90.0252 485.064 94.3192 481.073 98.544C475.048 104.911 463.246 102.729 459.895 95.6617C456.864 89.2947 456.359 78.318 464.823 74.4781C466.683 73.6254 468.784 73.168 470.927 73.1493C473.069 73.1306 475.182 73.5512 477.065 74.3712C478.948 75.1913 480.537 76.3834 481.683 77.8344C482.829 79.2854 483.492 80.947 483.61 82.6613Z" fill="#FFC3BD"/>
<path d="M468.483 94.6549C469.56 94.5601 470.593 94.2597 471.496 93.7788C472.398 93.2978 473.144 92.6505 473.669 91.891C473.692 91.8461 473.693 91.7962 473.672 91.7507C473.652 91.7052 473.611 91.6673 473.558 91.6442C473.53 91.6325 473.499 91.6256 473.468 91.6238C473.436 91.622 473.404 91.6253 473.374 91.6336C473.344 91.6419 473.317 91.655 473.293 91.6721C473.27 91.6892 473.251 91.7099 473.238 91.733C472.739 92.4285 472.043 93.0205 471.206 93.4611C470.37 93.9017 469.416 94.1788 468.421 94.2699C468.359 94.2794 468.304 94.3067 468.265 94.3467C468.226 94.3867 468.207 94.4366 468.211 94.4871C468.221 94.5377 468.254 94.5836 468.305 94.6149C468.355 94.6462 468.419 94.6605 468.483 94.6549Z" fill="#263238"/>
<path d="M475.296 77.627C475.678 80.8647 478.93 84.1419 478.524 86.2346C478.361 87.1554 477.971 88.0412 477.378 88.8406L483.341 89.9462C483.341 89.9462 500.379 75.3566 486.901 72.5532C480.667 62.909 454.808 60.0562 449.462 68.6047C443.782 77.6171 459.379 79.7493 459.379 79.7493C459.379 79.7493 465.477 76.2549 475.296 77.627Z" fill="#263238"/>
<path d="M489.093 90.341C488.115 92.027 486.343 93.3334 484.165 93.9736C481.282 94.8126 479.607 92.7792 480.235 90.4989C480.789 88.4457 482.958 85.5633 485.951 85.6916C486.604 85.7352 487.233 85.9083 487.781 86.1953C488.329 86.4823 488.779 86.8742 489.091 87.3356C489.403 87.7971 489.566 88.3134 489.567 88.8381C489.567 89.3628 489.404 89.8793 489.093 90.341Z" fill="#FFC3BD"/>
<path d="M424.574 333.923L440.146 335.709C440.146 335.709 449.177 290.302 453.846 263.956C455.078 256.977 457.123 247.125 459.784 236.612C463.123 223.365 467.385 209.042 470.872 197.819C474.568 185.973 477.389 177.622 477.389 177.622L444.742 176.329C444.742 176.329 428.726 237.777 426.89 260.432C425.03 283.994 424.574 333.923 424.574 333.923Z" fill="#263238"/>
<path opacity="0.2" d="M459.785 236.612C463.124 223.365 467.386 209.042 470.873 197.819L467.35 192.014C459.527 199.911 457.888 223.701 459.785 236.612Z" fill="black"/>
<path d="M462.371 177.03C462.371 177.03 467.508 240.867 471.426 262.435C475.726 286.057 486.629 337.693 486.629 337.693H503.63C503.63 337.693 502.114 289.028 497.753 265.871C492.825 239.653 494.378 178.303 494.378 178.303L462.371 177.03Z" fill="#263238"/>
<path d="M484.584 337.99H504.615V333.192L482.23 332.886L484.584 337.99Z" fill="#407BFF"/>
<path d="M423.553 334.1L441.121 336.124L442.821 331.188L422.789 328.859L423.553 334.1Z" fill="#407BFF"/>
<path d="M470.108 86.1457C470.206 86.738 469.886 87.2612 469.405 87.3105C468.925 87.3599 468.444 86.9157 468.346 86.3234C468.247 85.7311 468.568 85.208 469.06 85.1586C469.553 85.1092 470.009 85.5436 470.108 86.1457Z" fill="#263238"/>
<path d="M461.719 87.0145C461.805 87.6068 461.497 88.13 461.004 88.1793C460.512 88.2287 460.056 87.7944 459.957 87.1922C459.859 86.5901 460.179 86.0768 460.66 86.0274C461.14 85.9781 461.62 86.3926 461.719 87.0145Z" fill="#263238"/>
<path d="M464.453 87.0342C463.86 88.9447 462.944 90.7812 461.73 92.4929C463.197 93.3419 465.426 92.4929 465.426 92.4929L464.453 87.0342Z" fill="#ED847E"/>
<path d="M472.363 83.6977C472.286 83.7177 472.203 83.72 472.125 83.7043C472.047 83.6886 471.975 83.6555 471.919 83.6089C471.544 83.2843 471.078 83.0356 470.56 82.8829C470.042 82.7302 469.486 82.6779 468.938 82.7303C468.881 82.7404 468.822 82.7411 468.765 82.7326C468.708 82.724 468.654 82.7063 468.606 82.6804C468.557 82.6546 468.516 82.6213 468.484 82.5823C468.452 82.5434 468.431 82.4997 468.42 82.4539C468.408 82.4085 468.407 82.3615 468.418 82.3158C468.428 82.27 468.45 82.2265 468.483 82.1878C468.515 82.1491 468.556 82.116 468.605 82.0905C468.654 82.065 468.708 82.0476 468.765 82.0393C469.457 81.9646 470.161 82.0232 470.819 82.2104C471.477 82.3975 472.069 82.7077 472.547 83.1153C472.588 83.1475 472.621 83.1859 472.643 83.2283C472.665 83.2706 472.677 83.3161 472.677 83.3621C472.677 83.408 472.665 83.4536 472.643 83.4959C472.621 83.5383 472.588 83.5767 472.547 83.6089C472.494 83.6485 472.431 83.6788 472.363 83.6977Z" fill="#263238"/>
<path d="M457.739 85.07C457.65 85.0898 457.557 85.0898 457.468 85.07C457.357 85.0406 457.266 84.9775 457.213 84.8944C457.16 84.8113 457.15 84.7148 457.185 84.6258C457.391 84.0894 457.754 83.6005 458.245 83.2003C458.736 82.8001 459.34 82.5001 460.006 82.3258C460.064 82.3063 460.127 82.2971 460.191 82.2988C460.254 82.3005 460.316 82.3131 460.373 82.3357C460.43 82.3583 460.48 82.3904 460.52 82.4298C460.56 82.4692 460.589 82.5151 460.605 82.5642C460.621 82.6134 460.624 82.6648 460.613 82.7148C460.602 82.7649 460.578 82.8125 460.542 82.8545C460.506 82.8964 460.46 82.9317 460.405 82.958C460.351 82.9843 460.291 83.001 460.228 83.0069C459.707 83.1537 459.236 83.3962 458.853 83.7151C458.47 84.0339 458.185 84.4202 458.022 84.8429C458.004 84.8972 457.968 84.9466 457.918 84.9864C457.868 85.0262 457.807 85.055 457.739 85.07Z" fill="#263238"/>
<path d="M488.194 348.196C487.563 348.233 486.935 348.101 486.407 347.821C486.243 347.706 486.115 347.561 486.036 347.397C485.956 347.234 485.928 347.058 485.952 346.883C485.952 346.781 485.988 346.68 486.055 346.593C486.123 346.506 486.219 346.436 486.334 346.39C487.368 345.965 490.35 347.436 490.695 347.604C490.731 347.623 490.76 347.65 490.777 347.681C490.795 347.713 490.8 347.748 490.793 347.782C490.789 347.817 490.772 347.85 490.743 347.876C490.714 347.903 490.676 347.922 490.633 347.93C489.835 348.093 489.017 348.182 488.194 348.196ZM486.814 346.656C486.721 346.64 486.624 346.64 486.531 346.656C486.487 346.678 486.451 346.708 486.427 346.745C486.403 346.782 486.392 346.823 486.395 346.864C486.373 346.982 486.389 347.103 486.44 347.215C486.492 347.327 486.578 347.427 486.691 347.505C487.728 347.89 488.911 347.939 489.992 347.644C489.022 347.154 487.943 346.819 486.814 346.656Z" fill="#407BFF"/>
<path d="M490.571 347.979C490.539 347.987 490.505 347.987 490.473 347.979C489.512 347.565 487.651 345.936 487.848 345.107C487.88 344.976 487.967 344.858 488.096 344.773C488.224 344.689 488.385 344.643 488.551 344.643C488.718 344.627 488.887 344.64 489.048 344.679C489.209 344.718 489.359 344.783 489.487 344.87C490.559 345.571 490.793 347.723 490.793 347.831C490.799 347.864 490.793 347.897 490.775 347.927C490.758 347.957 490.73 347.982 490.694 347.999L490.571 347.979ZM488.699 344.968H488.6C488.317 344.968 488.292 345.107 488.28 345.146C488.169 345.64 489.352 346.874 490.3 347.456C490.24 346.608 489.858 345.795 489.204 345.126C489.076 345.007 488.894 344.933 488.699 344.919V344.968Z" fill="#407BFF"/>
<path d="M426.57 344.485C425.043 344.544 422.357 344.485 421.47 343.705C421.341 343.583 421.251 343.437 421.208 343.28C421.165 343.124 421.171 342.961 421.224 342.807C421.246 342.711 421.298 342.622 421.376 342.548C421.454 342.473 421.554 342.416 421.667 342.382C422.899 342.027 426.287 343.942 426.681 344.159C426.719 344.181 426.747 344.212 426.762 344.247C426.777 344.282 426.779 344.32 426.768 344.356C426.755 344.391 426.73 344.423 426.694 344.445C426.659 344.468 426.616 344.482 426.57 344.485ZM421.84 342.708H421.778C421.733 342.721 421.694 342.744 421.664 342.773C421.634 342.803 421.613 342.838 421.606 342.876C421.57 342.978 421.567 343.086 421.597 343.19C421.627 343.293 421.689 343.389 421.778 343.468C422.271 343.932 423.762 344.179 425.844 344.139C424.476 343.429 422.567 342.57 421.84 342.708Z" fill="#407BFF"/>
<path d="M426.571 344.485C426.515 344.5 426.454 344.5 426.399 344.485C425.364 343.952 423.442 342.116 423.762 341.296C423.836 341.109 424.058 340.882 424.661 340.902C424.882 340.91 425.098 340.954 425.297 341.03C425.495 341.106 425.673 341.214 425.82 341.346C426.842 342.244 426.743 344.258 426.731 344.307C426.729 344.337 426.718 344.366 426.698 344.392C426.679 344.418 426.652 344.439 426.62 344.455L426.571 344.485ZM424.39 341.247C424.218 341.247 424.193 341.356 424.181 341.385C423.996 341.869 425.265 343.29 426.3 343.972C426.346 343.121 426.062 342.279 425.487 341.563C425.383 341.465 425.255 341.385 425.111 341.329C424.967 341.273 424.809 341.242 424.649 341.237L424.39 341.247Z" fill="#407BFF"/>
<path d="M502.644 117.862C503.802 119.007 504.788 120.044 505.786 121.159C506.784 122.274 507.745 123.36 508.706 124.476C510.587 126.713 512.373 129.017 514.065 131.386C517.549 136.198 520.363 141.302 522.454 146.607L522.553 146.883L522.689 147.268L522.923 148.048C523.021 148.512 523.132 149.035 523.194 149.45C523.298 150.283 523.343 151.12 523.329 151.957C523.286 153.444 523.13 154.928 522.861 156.399C522.352 159.128 521.645 161.831 520.742 164.494C518.992 169.656 516.777 174.71 514.114 179.616L507.449 177.958C508.521 172.933 509.556 167.83 510.32 162.855C510.726 160.377 510.985 157.919 511.096 155.55C511.153 154.438 511.128 153.324 511.022 152.214C510.96 151.71 510.874 151.227 510.775 150.832C510.775 150.634 510.665 150.486 510.615 150.319L510.529 150.161V150.082L510.43 149.894C509.359 147.742 508.04 145.59 506.648 143.448C505.256 141.306 503.667 139.194 502.041 137.091C500.415 134.989 498.69 132.916 496.94 130.862C496.066 129.875 495.166 128.809 494.267 127.802L491.557 124.89L502.644 117.862Z" fill="#FFC3BD"/>
<path d="M501.289 113.805C510.024 115.068 518.081 132.007 518.081 132.007L500.18 144.149C500.18 144.149 494.021 135.581 489.031 127.289C483.672 118.267 490.707 112.275 501.289 113.805Z" fill="#407BFF"/>
<path d="M508.398 176.497L502.238 182.242L513.646 184.828C513.646 184.828 517.502 179.014 513.88 177.03L508.398 176.497Z" fill="#FFC3BD"/>
<path d="M501.893 188.441L511.453 190.238L513.683 184.828L502.274 182.242L501.893 188.441Z" fill="#FFC3BD"/>
<path d="M308.302 243.512C308.374 244.588 308.094 245.66 307.489 246.622C306.908 247.561 306.157 248.426 305.259 249.188C303.485 250.632 301.49 251.889 299.321 252.93C295.061 254.922 290.568 256.575 285.905 257.865C276.675 260.416 267.198 262.351 257.57 263.65C238.447 266.289 219.071 267.577 199.667 267.499C180.283 267.574 160.929 266.286 141.826 263.65C132.198 262.35 122.721 260.415 113.491 257.865C108.832 256.575 104.342 254.922 100.087 252.93C97.9138 251.889 95.9144 250.632 94.1363 249.188C93.2424 248.424 92.4913 247.559 91.9064 246.622C91.3077 245.658 91.0277 244.588 91.0933 243.512C91.0852 243.382 91.1422 243.253 91.252 243.156C91.3617 243.059 91.5152 243.001 91.6785 242.994C91.8419 242.988 92.0018 243.033 92.1231 243.121C92.2444 243.209 92.3172 243.332 92.3253 243.463V243.512C92.7536 245.234 94.0105 246.752 95.8241 247.737C97.6427 248.833 99.6251 249.741 101.725 250.442C106.018 251.903 110.467 253.05 115.018 253.867C119.65 254.749 124.315 255.486 129.013 256.078C133.67 256.671 138.352 257.223 143.046 257.628C161.89 259.229 180.828 260.007 199.778 259.958C218.727 260.007 237.666 259.23 256.51 257.628C261.216 257.223 265.885 256.641 270.542 256.078C275.199 255.516 279.831 254.766 284.377 253.867C288.928 253.05 293.378 251.903 297.67 250.442C299.774 249.741 301.761 248.833 303.584 247.737C305.39 246.748 306.641 245.231 307.07 243.512V243.463C307.092 243.334 307.176 243.216 307.306 243.137C307.435 243.057 307.598 243.022 307.76 243.039C307.905 243.055 308.039 243.111 308.138 243.197C308.237 243.284 308.295 243.395 308.302 243.512Z" fill="#407BFF"/>
<path opacity="0.5" d="M308.302 243.512C308.374 244.588 308.094 245.66 307.489 246.622C306.908 247.561 306.157 248.426 305.259 249.188C303.485 250.632 301.49 251.889 299.321 252.93C295.061 254.922 290.568 256.575 285.905 257.865C276.675 260.416 267.198 262.351 257.57 263.65C238.447 266.289 219.071 267.577 199.667 267.499C180.283 267.574 160.929 266.286 141.826 263.65C132.198 262.35 122.721 260.415 113.491 257.865C108.832 256.575 104.342 254.922 100.087 252.93C97.9138 251.889 95.9144 250.632 94.1363 249.188C93.2424 248.424 92.4913 247.559 91.9064 246.622C91.3077 245.658 91.0277 244.588 91.0933 243.512C91.0852 243.382 91.1422 243.253 91.252 243.156C91.3617 243.059 91.5152 243.001 91.6785 242.994C91.8419 242.988 92.0018 243.033 92.1231 243.121C92.2444 243.209 92.3172 243.332 92.3253 243.463V243.512C92.7536 245.234 94.0105 246.752 95.8241 247.737C97.6427 248.833 99.6251 249.741 101.725 250.442C106.018 251.903 110.467 253.05 115.018 253.867C119.65 254.749 124.315 255.486 129.013 256.078C133.67 256.671 138.352 257.223 143.046 257.628C161.89 259.229 180.828 260.007 199.778 259.958C218.727 260.007 237.666 259.23 256.51 257.628C261.216 257.223 265.885 256.641 270.542 256.078C275.199 255.516 279.831 254.766 284.377 253.867C288.928 253.05 293.378 251.903 297.67 250.442C299.774 249.741 301.761 248.833 303.584 247.737C305.39 246.748 306.641 245.231 307.07 243.512V243.463C307.092 243.334 307.176 243.216 307.306 243.137C307.435 243.057 307.598 243.022 307.76 243.039C307.905 243.055 308.039 243.111 308.138 243.197C308.237 243.284 308.295 243.395 308.302 243.512Z" fill="white"/>
<path d="M524.734 243.512C524.8 244.588 524.52 245.658 523.921 246.622C523.341 247.561 522.589 248.426 521.691 249.188C519.913 250.632 517.914 251.889 515.741 252.93C511.485 254.922 506.996 256.575 502.337 257.865C493.107 260.415 483.63 262.35 474.002 263.65C435.707 268.783 396.614 268.783 358.32 263.65C348.692 262.351 339.214 260.416 329.984 257.865C325.326 256.575 320.836 254.922 316.581 252.93C314.405 251.892 312.406 250.634 310.63 249.188C309.732 248.426 308.981 247.561 308.4 246.622C307.796 245.66 307.515 244.588 307.587 243.512C307.579 243.382 307.636 243.253 307.746 243.156C307.856 243.059 308.009 243.001 308.172 242.994C308.336 242.988 308.496 243.033 308.617 243.121C308.738 243.209 308.811 243.332 308.819 243.463V243.512C309.248 245.231 310.5 246.748 312.306 247.737C314.129 248.833 316.115 249.741 318.219 250.442C322.512 251.903 326.961 253.05 331.512 253.867C336.058 254.766 340.69 255.496 345.347 256.078C350.004 256.661 354.673 257.223 359.379 257.628C378.203 259.228 397.121 260.005 416.05 259.958C434.999 260.007 453.938 259.229 472.782 257.628C477.476 257.223 482.157 256.641 486.814 256.078C491.471 255.516 496.091 254.766 500.649 253.867C505.201 253.05 509.65 251.903 513.942 250.442C516.044 249.743 518.027 248.835 519.843 247.737C521.657 246.752 522.914 245.234 523.342 243.512V243.463C523.364 243.334 523.448 243.216 523.578 243.137C523.707 243.057 523.87 243.022 524.032 243.039C524.117 243.032 524.203 243.039 524.285 243.059C524.367 243.079 524.443 243.113 524.508 243.157C524.574 243.201 524.627 243.255 524.666 243.316C524.705 243.377 524.728 243.444 524.734 243.512Z" fill="#407BFF"/>
<path opacity="0.5" d="M524.734 243.512C524.8 244.588 524.52 245.658 523.921 246.622C523.341 247.561 522.589 248.426 521.691 249.188C519.913 250.632 517.914 251.889 515.741 252.93C511.485 254.922 506.996 256.575 502.337 257.865C493.107 260.415 483.63 262.35 474.002 263.65C435.707 268.783 396.614 268.783 358.32 263.65C348.692 262.351 339.214 260.416 329.984 257.865C325.326 256.575 320.836 254.922 316.581 252.93C314.405 251.892 312.406 250.634 310.63 249.188C309.732 248.426 308.981 247.561 308.4 246.622C307.796 245.66 307.515 244.588 307.587 243.512C307.579 243.382 307.636 243.253 307.746 243.156C307.856 243.059 308.009 243.001 308.172 242.994C308.336 242.988 308.496 243.033 308.617 243.121C308.738 243.209 308.811 243.332 308.819 243.463V243.512C309.248 245.231 310.5 246.748 312.306 247.737C314.129 248.833 316.115 249.741 318.219 250.442C322.512 251.903 326.961 253.05 331.512 253.867C336.058 254.766 340.69 255.496 345.347 256.078C350.004 256.661 354.673 257.223 359.379 257.628C378.203 259.228 397.121 260.005 416.05 259.958C434.999 260.007 453.938 259.229 472.782 257.628C477.476 257.223 482.157 256.641 486.814 256.078C491.471 255.516 496.091 254.766 500.649 253.867C505.201 253.05 509.65 251.903 513.942 250.442C516.044 249.743 518.027 248.835 519.843 247.737C521.657 246.752 522.914 245.234 523.342 243.512V243.463C523.364 243.334 523.448 243.216 523.578 243.137C523.707 243.057 523.87 243.022 524.032 243.039C524.117 243.032 524.203 243.039 524.285 243.059C524.367 243.079 524.443 243.113 524.508 243.157C524.574 243.201 524.627 243.255 524.666 243.316C524.705 243.377 524.728 243.444 524.734 243.512Z" fill="white"/>
<path d="M95.5649 211.095H88.7891V356.37H95.5649V211.095Z" fill="#407BFF"/>
<path d="M88.7031 354.336H95.6022C96.0825 354.336 96.5431 354.489 96.8827 354.761C97.2224 355.033 97.4132 355.403 97.4132 355.787V356.36H86.9414V355.787C86.9412 355.409 87.1252 355.046 87.4543 354.775C87.7833 354.504 88.2314 354.347 88.7031 354.336Z" fill="#407BFF"/>
<path d="M96.0816 241.894H88.2832V245.141H96.0816V241.894Z" fill="#407BFF"/>
<path opacity="0.3" d="M95.5649 245.141H88.7891V245.891H95.5649V245.141Z" fill="black"/>
<path d="M92.1768 213.721C95.3067 213.721 97.8439 211.688 97.8439 209.18C97.8439 206.673 95.3067 204.64 92.1768 204.64C89.047 204.64 86.5098 206.673 86.5098 209.18C86.5098 211.688 89.047 213.721 92.1768 213.721Z" fill="#407BFF"/>
<path d="M527.198 211.095H520.422V356.37H527.198V211.095Z" fill="#407BFF"/>
<path d="M520.385 354.336H527.284C527.764 354.336 528.225 354.489 528.564 354.761C528.904 355.033 529.095 355.403 529.095 355.787V356.36H518.623V355.787C518.623 355.409 518.807 355.046 519.136 354.775C519.465 354.504 519.913 354.347 520.385 354.336Z" fill="#407BFF"/>
<path d="M527.703 241.894H519.904V245.141H527.703V241.894Z" fill="#407BFF"/>
<path opacity="0.3" d="M527.198 245.141H520.422V245.891H527.198V245.141Z" fill="black"/>
<path d="M523.81 213.721C526.939 213.721 529.477 211.688 529.477 209.18C529.477 206.673 526.939 204.64 523.81 204.64C520.68 204.64 518.143 206.673 518.143 209.18C518.143 211.688 520.68 213.721 523.81 213.721Z" fill="#407BFF"/>
<path d="M311.381 211.095H304.605V356.37H311.381V211.095Z" fill="#407BFF"/>
<path d="M304.569 354.336H311.419C311.899 354.336 312.36 354.489 312.699 354.761C313.039 355.033 313.23 355.403 313.23 355.787V356.36H302.758V355.787C302.758 355.403 302.949 355.033 303.288 354.761C303.628 354.489 304.089 354.336 304.569 354.336Z" fill="#407BFF"/>
<path d="M311.886 241.894H304.088V245.141H311.886V241.894Z" fill="#407BFF"/>
<path opacity="0.3" d="M311.381 245.141H304.605V245.891H311.381V245.141Z" fill="black"/>
<path d="M307.993 213.721C311.123 213.721 313.66 211.688 313.66 209.18C313.66 206.673 311.123 204.64 307.993 204.64C304.863 204.64 302.326 206.673 302.326 209.18C302.326 211.688 304.863 213.721 307.993 213.721Z" fill="#407BFF"/>
</svg>
